 <svg  version="1.0" xmlns="http://www.w3.org/2000/svg"  width="300.000000pt" height="62.000000pt" viewBox="0 0 300.000000 62.000000"  preserveAspectRatio="xMidYMid meet">  <g transform="translate(0.000000,62.000000) scale(0.100000,-0.100000)" fill="#ffd700" stroke="none"> <path d="M422 606 c-171 -33 -313 -138 -386 -287 -23 -46 -36 -86 -34 -100 4 -23 5 -23 12 -4 136 354 415 453 958 339 183 -38 369 -94 838 -249 673 -223 832 -265 1138 -300 31 -3 52 -2 52 4 0 5 -21 13 -47 16 -317 41 -479 84 -1178 315 -467 154 -706 222 -890 255 -127 23 -371 28 -463 11z"/> </g> </svg> 